<svg width="413" height="397" viewBox="0 0 413 397" fill="none" xmlns="http://www.w3.org/2000/svg">
<path d="M227.411 167.5L241.44 115.558H412.026V281.263H236.826L279.901 167.5H227.411Z" fill="#293A47"/>
<path d="M0.00328773 117.065L166.589 116.897C154.287 157.141 141.543 198.612 129.496 238.971L182.996 239C180.423 253.381 177.32 268.142 174.647 283.084C116.631 283.084 58.3283 283.619 0.00329221 283.084C0.00329221 283.084 -0.00411227 172.049 0.00328773 117.065Z" fill="#293A47"/>
<path d="M153.996 219.842L196.956 79.4458L161.996 82C186.014 55.3778 235.772 0 235.772 0L263.554 106.751L233.606 88.6091L206.982 185.98H259.273L172.496 396.5L204.866 219.842H153.996Z" fill="#FB8504"/>
</svg>
